<?xml version="1.0" encoding="UTF-8"?><svg xmlns="http://www.w3.org/2000/svg" viewBox="0 0 473.59 606.84"><defs><style>.c{fill:#fff5e0;stroke:#ad8873;stroke-miterlimit:10;stroke-width:4px;}.d{fill:red;}</style></defs><g id="a"><path class="c" d="m332.71,234.68l14,18v-8l-.25-5.41c-21.43-23.77-47.22-49.02-73.25-66.54-5.63-3.79-19.03-12.43-27-29-16.14-33.56,1.04-76.67,2-79,8.9-21.57,19.16-27.44,16-40-3.58-14.24-21.58-25.8-32-22-10.91,3.98-10.75,23.8-18,24-6.11.16-7.15-13.88-16-16-9.63-2.3-24.39,10.5-26,24-1.26,10.59,6.09,17.29,13,28,17.64,27.33,21.57,63.92,13,86-6.85,17.63-20.42,22.8-42,38-34.07,24-53.31,48.49-82,85,0,0-65.86,83.83-72,210-.57,11.69-.97,36.36,14,58,7.34,10.6,23.47,27.85,36,24,3.57-1.1,7.3-4.05,9-8,4.64-10.81-7.83-24.73-5-27,1.74-1.4,5.86,4.36,12,4,7.6-.45,15.59-10.12,15-18-.74-9.91-14.84-14.34-23-20-31.79-22.04-24.47-97.97-7-146,20.12-55.31,58.44-86.63,79-103,27.97-22.27,53.74-42.8,89-46,43.05-3.91,84.53,19.42,116.95,53.15l3.55,3.8-9-22Z"/><path class="c" d="m446.17,378.69c-.23-4.65-1.61-32.47-6.55-67.55l-3.18-9.47-7.46-14.77.7,14.96-16.24-18.88,9.78,21.17c6.46,34.41,5.56,70.8-1.56,101.58-11.4,49.23-46.84,119.32-86.97,122.41-8.67.67-26.13-1.13-31.48,8.3-3.72,6.56-1.3,18.06,5.11,23.49,5.44,4.6,12.89,4.12,12.86,5.89-.03,1.71-6.94,1.11-13.22,5.77-.9.67-8.31,6.35-8.35,14.84-.03,7.48,5.67,13.81,10.82,16.46,13.06,6.71,31.54-5.69,38.93-10.64,25.43-17.06,102.7-94.81,96.81-213.56Z"/></g><g id="b"><polygon class="d" points="382.18 224.55 397.73 189.73 381.59 190.86 390.84 144.76 365.65 200.26 385.97 202.22 382.18 224.55"/><polygon class="d" points="396.07 251.95 428.1 231.26 429.46 247.38 473.59 231.19 422.6 264.58 417.56 244.79 396.07 251.95"/><path class="d" d="m466.57,170.48c-.27.96-20.22,42.08-20.22,42.08l-14.34-22.77-40.53,48.23,30.04-69.91s23,25.22,23.28,24.25,21.78-21.9,21.78-21.9Z"/></g></svg>