<?xml version="1.0" encoding="UTF-8"?><svg id="a" xmlns="http://www.w3.org/2000/svg" viewBox="0 0 481.93 568.81"><defs><style>.b{fill:#fff5e0;stroke:#ad8873;stroke-miterlimit:10;stroke-width:4px;}</style></defs><path class="b" d="m247.29,26.73c7.25-.2,7.09-20.02,18-24,10.42-3.8,28.42,7.76,32,22,3.16,12.56-7.1,18.43-16,40-.96,2.33-18.14,45.44-2,79,7.97,16.57,21.37,25.21,27,29,60.94,41,120.57,124.41,126,132,69.15,96.72,46.17,203.9,34,232-3.54,8.17-12.38,28.59-27,30-5.76.56-13.99-1.69-18-8-4.56-7.16-1.4-15.95-1-17,2.76-7.32,8.9-10.55,8-12-.93-1.51-6.93,2.93-14,2-8.33-1.1-16.59-9.47-17-17-.59-10.82,15.07-18.75,22-24,32.1-24.3,24.03-102.42,7-150-25.09-70.11-96.1-147.9-172-141-35.26,3.2-61.03,23.73-89,46-20.56,16.37-58.88,47.69-79,103-17.47,48.03-24.79,123.96,7,146,8.16,5.66,22.26,10.09,23,20,.59,7.88-7.4,17.55-15,18-6.14.36-10.26-5.4-12-4-2.83,2.27,9.64,16.19,5,27-1.7,3.95-5.43,6.9-9,8-12.53,3.85-28.66-13.4-36-24-14.97-21.64-14.57-46.31-14-58,6.14-126.17,72-210,72-210,28.69-36.51,47.93-61,82-85,21.58-15.2,35.15-20.37,42-38,8.57-22.08,4.64-58.67-13-86-6.91-10.71-14.26-17.41-13-28,1.61-13.5,16.37-26.3,26-24,8.85,2.12,9.89,16.16,16,16Z"/></svg>