<?xml version="1.0" encoding="UTF-8"?><svg xmlns="http://www.w3.org/2000/svg" viewBox="0 0 481.57 583.78"><defs><style>.c{fill:#fff5e0;stroke:#ad8873;stroke-miterlimit:10;stroke-width:4px;}.d{fill:red;}</style></defs><g id="a"><path class="c" d="m118.84,544.83c7.08-2.81,11.64-14.49,8.62-21.79-3.8-9.18-18.58-8.98-28.1-11.8-37.08-10.99-53.9-85.39-52.33-136.48.93-30.21,8.4-55.9,17.39-76.73l-7.13,7.53s.67-4.7,1.41-9.76c0,0-10.92,11.76-11.41,11.76-.57,0-2.77-6.5-4.55-12.09-2.4,6.88-34.97,104.22-2.54,221.58,3.12,11.28,10.45,34.84,31.44,50.71,10.28,7.78,31,19.11,41.7,11.53,3.05-2.16,5.67-6.13,6.05-10.41,1.03-11.72-15.18-21.04-13.2-24.08,1.22-1.87,6.93,2.31,12.65.04Z"/><path class="c" d="m431.94,304.73c-5.43-7.59-65.06-91-126-132-5.63-3.79-19.03-12.43-27-29-16.14-33.56,1.04-76.67,2-79,8.9-21.57,19.16-27.44,16-40-3.58-14.24-21.58-25.8-32-22-10.91,3.98-10.75,23.8-18,24-6.11.16-7.15-13.88-16-16-9.63-2.3-24.39,10.5-26,24-1.26,10.59,6.09,17.29,13,28,17.64,27.33,21.57,63.92,13,86-6.85,17.63-20.42,22.8-42,38-31.89,22.46-50.79,45.36-76.6,78.13l-4.77,7.11-1.27,9.58,6.89-7.43,2.14,16.69,19.91-18.89c11.17-11.3,21.76-19.86,29.7-26.19,27.97-22.27,53.74-42.8,89-46,75.9-6.9,146.91,70.89,172,141,17.03,47.58,25.1,125.7-7,150-6.93,5.25-22.59,13.18-22,24,.41,7.53,8.67,15.9,17,17,7.07.93,13.07-3.51,14-2,.9,1.45-5.24,4.68-8,12-.4,1.05-3.56,9.84,1,17,4.01,6.31,12.24,8.56,18,8,14.62-1.41,23.46-21.83,27-30,12.17-28.1,35.15-135.28-34-232Z"/></g><g id="b"><polygon class="d" points="89.77 249.55 84.29 211.81 99.51 217.29 103.16 170.42 112.29 230.68 92.2 227.03 89.77 249.55"/><polygon class="d" points="68.95 272.14 43.75 243.51 38.06 258.65 0 231.06 39.98 277.06 50.21 259.4 68.95 272.14"/><path class="d" d="m23.29,174.55c0,1,8,46,8,46l20-18,25.87,57.45-9.87-75.45s-29,18-29,17-15-27-15-27Z"/></g></svg>